<svg width="28" height="27" viewBox="0 0 28 27" fill="none" xmlns="http://www.w3.org/2000/svg">
<path d="M15.9442 11.9954H23.2309C23.2825 11.9954 23.3319 12.0159 23.3683 12.0523C23.4048 12.0888 23.4252 12.1382 23.4252 12.1897V21.9748C23.4252 22.8546 23.0758 23.6983 22.4537 24.3204C21.8316 24.9425 20.9878 25.292 20.108 25.292H8.44925C7.56947 25.292 6.72573 24.9425 6.10363 24.3204C5.48153 23.6983 5.13204 22.8546 5.13204 21.9748V5.31936C5.13204 4.43959 5.48153 3.59584 6.10363 2.97375C6.72573 2.35165 7.56947 2.00216 8.44925 2.00216H13.2377C13.2892 2.00216 13.3386 2.02263 13.3751 2.05907C13.4115 2.09551 13.432 2.14494 13.432 2.19647V9.48322C13.432 10.1495 13.6967 10.7885 14.1678 11.2596C14.6389 11.7307 15.2779 11.9954 15.9442 11.9954ZM10.1148 20.3231H18.4425C18.667 20.3231 18.8824 20.2339 19.0412 20.0751C19.1999 19.9164 19.2891 19.701 19.2891 19.4765C19.2891 19.2519 19.1999 19.0366 19.0412 18.8778C18.8824 18.719 18.667 18.6298 18.4425 18.6298H10.1148C9.89024 18.6298 9.67489 18.719 9.51612 18.8778C9.35734 19.0366 9.26814 19.2519 9.26814 19.4765C9.26814 19.701 9.35734 19.9164 9.51612 20.0751C9.67489 20.2339 9.89024 20.3231 10.1148 20.3231ZM10.1148 16.1593H18.4425C18.667 16.1593 18.8824 16.0701 19.0412 15.9113C19.1999 15.7525 19.2891 15.5372 19.2891 15.3126C19.2891 15.0881 19.1999 14.8727 19.0412 14.7139C18.8824 14.5552 18.667 14.466 18.4425 14.466H10.1148C9.89024 14.466 9.67489 14.5552 9.51612 14.7139C9.35734 14.8727 9.26814 15.0881 9.26814 15.3126C9.26814 15.5372 9.35734 15.7525 9.51612 15.9113C9.67489 16.0701 9.89024 16.1593 10.1148 16.1593Z" fill="white" stroke="#0075FF" stroke-width="0.027759"/>
<path d="M22.764 10.1482L15.279 2.66316C15.279 2.66316 15.279 2.66315 15.279 2.66315C15.2664 2.65061 15.2504 2.64209 15.2329 2.63864C15.2155 2.63519 15.1974 2.63698 15.181 2.64377C15.1645 2.65057 15.1505 2.66207 15.1405 2.67684C15.1306 2.6916 15.1253 2.70896 15.1252 2.72674V9.48308C15.1252 9.70026 15.2115 9.90855 15.3651 10.0621C15.5186 10.2157 15.7269 10.302 15.9441 10.302L22.7004 10.302L22.7005 10.302M22.764 10.1482L22.7005 10.3159V10.302M22.764 10.1482C22.7766 10.1608 22.7851 10.1768 22.7885 10.1943C22.792 10.2117 22.7902 10.2298 22.7834 10.2462C22.7766 10.2627 22.7651 10.2767 22.7503 10.2866C22.7356 10.2966 22.7182 10.3019 22.7005 10.302M22.764 10.1482L22.7005 10.302" fill="white" stroke="#0075FF" stroke-width="0.027759"/>
</svg>
