<svg width="20" height="21" viewBox="0 0 20 21" fill="none" xmlns="http://www.w3.org/2000/svg">
<path fill-rule="evenodd" clip-rule="evenodd" d="M10 0.638672C15.523 0.638672 20 5.11567 20 10.6387C20 16.1617 15.523 20.6387 10 20.6387C4.477 20.6387 0 16.1617 0 10.6387C0 5.11567 4.477 0.638672 10 0.638672ZM11 2.70067V3.63867C10.9997 3.89355 10.9021 4.1387 10.7272 4.32404C10.5522 4.50938 10.313 4.62091 10.0586 4.63584C9.80416 4.65078 9.55362 4.568 9.35817 4.40441C9.16271 4.24082 9.0371 4.00877 9.007 3.75567L9 3.63867V2.70067C7.28177 2.91765 5.68025 3.68601 4.43578 4.89046C3.19131 6.0949 2.37102 7.67045 2.098 9.38067L2.062 9.63867H3C3.25488 9.63895 3.50003 9.73655 3.68537 9.91152C3.8707 10.0865 3.98223 10.3256 3.99717 10.5801C4.01211 10.8345 3.92933 11.0851 3.76574 11.2805C3.60214 11.476 3.3701 11.6016 3.117 11.6317L3 11.6387H2.062C2.30363 13.5499 3.22674 15.3098 4.66175 16.5951C6.09677 17.8803 7.94734 18.6047 9.87355 18.6351C11.7998 18.6655 13.6723 17.9999 15.1471 16.7606C16.622 15.5212 17.6002 13.7913 17.902 11.8887L17.938 11.6387H17C16.7451 11.6384 16.5 11.5408 16.3146 11.3658C16.1293 11.1909 16.0178 10.9517 16.0028 10.6973C15.9879 10.4428 16.0707 10.1923 16.2343 9.99684C16.3979 9.80139 16.6299 9.67578 16.883 9.64567L17 9.63867H17.938C17.7198 7.8949 16.932 6.27193 15.697 5.02167L13.273 9.78067L13.118 10.0747L12.808 10.6847C12.438 11.4047 12.036 12.1387 11.485 12.6897C10.513 13.6607 8.897 13.7787 7.879 12.7597C6.86 11.7417 6.978 10.1257 7.949 9.15367C8.421 8.68167 9.027 8.31867 9.645 7.99167L10.564 7.52067L11.413 7.07667L15.616 4.94167C14.366 3.70686 12.7434 2.91912 11 2.70067ZM11.162 9.47667L10.952 9.58867L10.736 9.70167C10.334 9.91067 9.914 10.1277 9.564 10.3997L9.363 10.5697L9.29 10.6537C9.097 10.9137 9.155 11.2077 9.293 11.3457C9.431 11.4837 9.725 11.5417 9.985 11.3487L10.071 11.2747L10.239 11.0747C10.456 10.7947 10.639 10.4697 10.81 10.1447L10.937 9.90267C11.0117 9.75601 11.0867 9.61401 11.162 9.47667Z" fill="white"/>
</svg>
