<svg width="18" height="20" viewBox="0 0 18 20" fill="none" xmlns="http://www.w3.org/2000/svg">
<path d="M15 3V2C15 1.73478 14.8946 1.48043 14.7071 1.29289C14.5196 1.10536 14.2652 1 14 1H5.914C5.6488 1.00006 5.39449 1.10545 5.207 1.293L1.293 5.207C1.10545 5.39449 1.00006 5.64881 1 5.914V18C1 18.2652 1.10536 18.5196 1.29289 18.7071C1.48043 18.8946 1.73478 19 2 19H14C14.2652 19 14.5196 18.8946 14.7071 18.7071C14.8946 18.5196 15 18.2652 15 18V13M6 1V5C6 5.26522 5.89464 5.51957 5.70711 5.70711C5.51957 5.89464 5.26522 6 5 6H1M12.383 6.772L15.128 9.518M16.343 5.612C16.7341 6.00384 16.9538 6.53486 16.9538 7.0885C16.9538 7.64214 16.7341 8.17316 16.343 8.565L9.693 15.211L6 15.95L6.739 12.258L13.385 5.612C13.5789 5.41722 13.8094 5.26267 14.0632 5.15721C14.317 5.05175 14.5892 4.99746 14.864 4.99746C15.1388 4.99746 15.411 5.05175 15.6648 5.15721C15.9186 5.26267 16.1491 5.41722 16.343 5.612Z" stroke="white" stroke-width="2" stroke-linecap="round" stroke-linejoin="round"/>
</svg>
