<svg width="25" height="25" viewBox="0 0 25 25" fill="none" xmlns="http://www.w3.org/2000/svg">
<path d="M14.5 9.63867C14.2167 9.63867 13.9793 9.54267 13.788 9.35067C13.5967 9.15867 13.5007 8.92134 13.5 8.63867V4.63867C13.5 4.35534 13.596 4.11801 13.788 3.92667C13.98 3.73534 14.2173 3.63934 14.5 3.63867H20.5C20.7833 3.63867 21.021 3.73467 21.213 3.92667C21.405 4.11867 21.5007 4.35601 21.5 4.63867V8.63867C21.5 8.92201 21.404 9.15967 21.212 9.35167C21.02 9.54367 20.7827 9.63934 20.5 9.63867H14.5ZM4.5 13.6387C4.21667 13.6387 3.97933 13.5427 3.788 13.3507C3.59667 13.1587 3.50067 12.9213 3.5 12.6387V4.63867C3.5 4.35534 3.596 4.11801 3.788 3.92667C3.98 3.73534 4.21733 3.63934 4.5 3.63867H10.5C10.7833 3.63867 11.021 3.73467 11.213 3.92667C11.405 4.11867 11.5007 4.35601 11.5 4.63867V12.6387C11.5 12.922 11.404 13.1597 11.212 13.3517C11.02 13.5437 10.7827 13.6393 10.5 13.6387H4.5ZM14.5 21.6387C14.2167 21.6387 13.9793 21.5427 13.788 21.3507C13.5967 21.1587 13.5007 20.9213 13.5 20.6387V12.6387C13.5 12.3553 13.596 12.118 13.788 11.9267C13.98 11.7353 14.2173 11.6393 14.5 11.6387H20.5C20.7833 11.6387 21.021 11.7347 21.213 11.9267C21.405 12.1187 21.5007 12.356 21.5 12.6387V20.6387C21.5 20.922 21.404 21.1597 21.212 21.3517C21.02 21.5437 20.7827 21.6393 20.5 21.6387H14.5ZM4.5 21.6387C4.21667 21.6387 3.97933 21.5427 3.788 21.3507C3.59667 21.1587 3.50067 20.9213 3.5 20.6387V16.6387C3.5 16.3553 3.596 16.118 3.788 15.9267C3.98 15.7353 4.21733 15.6393 4.5 15.6387H10.5C10.7833 15.6387 11.021 15.7347 11.213 15.9267C11.405 16.1187 11.5007 16.356 11.5 16.6387V20.6387C11.5 20.922 11.404 21.1597 11.212 21.3517C11.02 21.5437 10.7827 21.6393 10.5 21.6387H4.5Z" fill="white"/>
</svg>
