<svg width="25" height="25" viewBox="0 0 25 25" fill="none" xmlns="http://www.w3.org/2000/svg">
<path d="M4.08984 20.7696C4.08984 21.8237 4.94505 22.6789 5.99915 22.6789H20.0007C21.0548 22.6789 21.9101 21.8237 21.9101 20.7696V9.95022H4.08984V20.7696ZM6.63559 13.1324C6.63559 12.7824 6.92198 12.496 7.27202 12.496H11.0906C11.4407 12.496 11.7271 12.7824 11.7271 13.1324V16.951C11.7271 17.3011 11.4407 17.5875 11.0906 17.5875H7.27202C6.92198 17.5875 6.63559 17.3011 6.63559 16.951V13.1324ZM20.0007 4.85873H18.0914V2.94942C18.0914 2.59938 17.805 2.31299 17.455 2.31299H16.1821C15.8321 2.31299 15.5457 2.59938 15.5457 2.94942V4.85873H10.4542V2.94942C10.4542 2.59938 10.1678 2.31299 9.81777 2.31299H8.5449C8.19486 2.31299 7.90846 2.59938 7.90846 2.94942V4.85873H5.99915C4.94505 4.85873 4.08984 5.71394 4.08984 6.76804V8.67735H21.9101V6.76804C21.9101 5.71394 21.0548 4.85873 20.0007 4.85873Z" fill="white"/>
</svg>
