<svg width="25" height="25" viewBox="0 0 25 25" fill="none" xmlns="http://www.w3.org/2000/svg">
<path d="M17.0196 17.1406C17.1946 17.0046 17.3536 16.8456 17.6706 16.5286L21.6276 12.5706C21.7236 12.4756 21.6796 12.3106 21.5526 12.2656C20.9329 12.0508 20.3706 11.6971 19.9086 11.2316C19.4431 10.7696 19.0894 10.2072 18.8746 9.58756C18.8296 9.46056 18.6646 9.41657 18.5696 9.51257L14.6106 13.4696C14.2936 13.7866 14.1346 13.9456 13.9986 14.1206C13.8366 14.3279 13.6993 14.5499 13.5866 14.7866C13.4916 14.9866 13.4206 15.2006 13.2786 15.6266L13.0946 16.1766L12.8026 17.0516L12.5296 17.8716C12.4956 17.9743 12.4908 18.0846 12.5158 18.1899C12.5407 18.2952 12.5945 18.3916 12.671 18.4681C12.7476 18.5447 12.8439 18.5985 12.9493 18.6234C13.0546 18.6484 13.1648 18.6436 13.2676 18.6096L14.0876 18.3366L14.9626 18.0446L15.5126 17.8606C15.9386 17.7186 16.1526 17.6486 16.3526 17.5526C16.5893 17.4392 16.8123 17.3019 17.0196 17.1406ZM22.8676 11.3316C23.2733 10.9258 23.5011 10.3755 23.501 9.80171C23.5009 9.22794 23.2729 8.67771 22.8671 8.27207C22.4613 7.86642 21.911 7.63858 21.3373 7.63867C20.7635 7.63877 20.2133 7.86678 19.8076 8.27256L19.6816 8.40057C19.6208 8.46005 19.5755 8.53355 19.5497 8.61463C19.5239 8.6957 19.5184 8.78186 19.5336 8.86556C19.5536 8.97256 19.5886 9.13057 19.6536 9.31757C19.7836 9.69257 20.0296 10.1846 20.4926 10.6476C20.9556 11.1106 21.4476 11.3566 21.8226 11.4866C22.0106 11.5516 22.1676 11.5866 22.2746 11.6066C22.3583 11.621 22.4442 11.615 22.5252 11.5893C22.6061 11.5635 22.6796 11.5187 22.7396 11.4586L22.8676 11.3316Z" fill="white"/>
<path fill-rule="evenodd" clip-rule="evenodd" d="M4.672 3.81067C3.5 4.98167 3.5 6.86767 3.5 10.6387V14.6387C3.5 18.4097 3.5 20.2957 4.672 21.4667C5.844 22.6377 7.729 22.6387 11.5 22.6387H13.5C17.271 22.6387 19.157 22.6387 20.328 21.4667C21.481 20.3147 21.5 18.4707 21.5 14.8187L18.682 17.6367C18.412 17.9067 18.191 18.1277 17.942 18.3227C17.6499 18.5514 17.3333 18.747 16.998 18.9057C16.6911 19.0437 16.3758 19.1623 16.054 19.2607L13.742 20.0317C13.375 20.1541 12.9811 20.1718 12.6046 20.083C12.228 19.9941 11.8837 19.8021 11.6101 19.5286C11.3365 19.255 11.1446 18.9106 11.0557 18.5341C10.9668 18.1575 10.9846 17.7637 11.107 17.3967L11.381 16.5767L11.856 15.1507L11.877 15.0847C11.998 14.7227 12.097 14.4267 12.233 14.1407C12.393 13.8047 12.5873 13.4903 12.816 13.1977C13.011 12.9477 13.232 12.7277 13.502 12.4577L17.508 8.45067L18.62 7.33867L18.747 7.21167C19.0868 6.87083 19.4907 6.60055 19.9353 6.4164C20.38 6.23225 20.8567 6.13786 21.338 6.13867C21.187 5.10867 20.894 4.37567 20.328 3.81067C19.157 2.63867 17.271 2.63867 13.5 2.63867H11.5C7.729 2.63867 5.843 2.63867 4.672 3.81067ZM7.75 9.63867C7.75 9.43976 7.82902 9.24899 7.96967 9.10834C8.11032 8.96769 8.30109 8.88867 8.5 8.88867H15C15.1989 8.88867 15.3897 8.96769 15.5303 9.10834C15.671 9.24899 15.75 9.43976 15.75 9.63867C15.75 9.83758 15.671 10.0283 15.5303 10.169C15.3897 10.3097 15.1989 10.3887 15 10.3887H8.5C8.30109 10.3887 8.11032 10.3097 7.96967 10.169C7.82902 10.0283 7.75 9.83758 7.75 9.63867ZM7.75 13.6387C7.75 13.4398 7.82902 13.249 7.96967 13.1083C8.11032 12.9677 8.30109 12.8887 8.5 12.8887H11C11.1989 12.8887 11.3897 12.9677 11.5303 13.1083C11.671 13.249 11.75 13.4398 11.75 13.6387C11.75 13.8376 11.671 14.0283 11.5303 14.169C11.3897 14.3097 11.1989 14.3887 11 14.3887H8.5C8.30109 14.3887 8.11032 14.3097 7.96967 14.169C7.82902 14.0283 7.75 13.8376 7.75 13.6387ZM7.75 17.6387C7.75 17.4398 7.82902 17.249 7.96967 17.1083C8.11032 16.9677 8.30109 16.8887 8.5 16.8887H10C10.1989 16.8887 10.3897 16.9677 10.5303 17.1083C10.671 17.249 10.75 17.4398 10.75 17.6387C10.75 17.8376 10.671 18.0283 10.5303 18.169C10.3897 18.3097 10.1989 18.3887 10 18.3887H8.5C8.30109 18.3887 8.11032 18.3097 7.96967 18.169C7.82902 18.0283 7.75 17.8376 7.75 17.6387Z" fill="white"/>
</svg>
