<svg xmlns="http://www.w3.org/2000/svg" xmlns:xlink="http://www.w3.org/1999/xlink" width="40" zoomAndPan="magnify" viewBox="0 0 30 30.000001" height="40" preserveAspectRatio="xMidYMid meet" version="1.2"><defs><clipPath id="52dcee68bd"><path d="M 0.484375 4 L 29.515625 4 L 29.515625 25.003906 L 0.484375 25.003906 Z M 0.484375 4 "/></clipPath></defs><g id="5611e0053a"><g clip-rule="nonzero" clip-path="url(#52dcee68bd)"><path style=" stroke:none;fill-rule:nonzero;fill:#5f5f5f;fill-opacity:1;" d="M 29.335938 19.773438 C 29.335938 19.949219 29.300781 20.113281 29.234375 20.273438 C 29.167969 20.433594 29.074219 20.578125 28.953125 20.699219 C 28.828125 20.820312 28.6875 20.917969 28.527344 20.984375 C 28.367188 21.046875 28.199219 21.082031 28.027344 21.082031 L 5.03125 21.082031 L 6.730469 22.769531 C 6.855469 22.890625 6.949219 23.03125 7.015625 23.195312 C 7.082031 23.355469 7.117188 23.523438 7.117188 23.695312 C 7.117188 23.871094 7.082031 24.039062 7.015625 24.199219 C 6.949219 24.359375 6.855469 24.503906 6.730469 24.625 C 6.605469 24.75 6.464844 24.84375 6.304688 24.910156 C 6.144531 24.976562 5.976562 25.011719 5.800781 25.011719 C 5.628906 25.011719 5.460938 24.976562 5.300781 24.910156 C 5.136719 24.84375 4.996094 24.75 4.875 24.625 L 0.953125 20.703125 C 0.828125 20.582031 0.730469 20.4375 0.664062 20.277344 C 0.597656 20.117188 0.566406 19.949219 0.566406 19.773438 C 0.566406 19.601562 0.597656 19.433594 0.664062 19.273438 C 0.730469 19.109375 0.828125 18.96875 0.953125 18.847656 L 4.875 14.925781 C 4.996094 14.800781 5.136719 14.707031 5.300781 14.640625 C 5.460938 14.574219 5.628906 14.539062 5.800781 14.539062 C 5.976562 14.539062 6.144531 14.574219 6.304688 14.640625 C 6.464844 14.707031 6.605469 14.800781 6.730469 14.925781 C 6.851562 15.046875 6.949219 15.1875 7.015625 15.351562 C 7.082031 15.511719 7.113281 15.679688 7.113281 15.851562 C 7.113281 16.027344 7.082031 16.195312 7.015625 16.355469 C 6.949219 16.515625 6.851562 16.65625 6.730469 16.78125 L 5.03125 18.46875 L 28.027344 18.46875 C 28.199219 18.46875 28.367188 18.5 28.527344 18.566406 C 28.6875 18.632812 28.828125 18.726562 28.953125 18.851562 C 29.074219 18.972656 29.167969 19.113281 29.234375 19.273438 C 29.300781 19.433594 29.335938 19.601562 29.335938 19.773438 Z M 1.878906 10.625 L 24.875 10.625 L 23.175781 12.308594 C 23.050781 12.433594 22.957031 12.574219 22.890625 12.734375 C 22.824219 12.894531 22.789062 13.0625 22.789062 13.238281 C 22.789062 13.414062 22.824219 13.578125 22.890625 13.742188 C 22.957031 13.902344 23.050781 14.042969 23.175781 14.167969 C 23.300781 14.289062 23.441406 14.386719 23.601562 14.453125 C 23.761719 14.519531 23.929688 14.554688 24.105469 14.554688 C 24.277344 14.554688 24.445312 14.519531 24.609375 14.453125 C 24.769531 14.386719 24.910156 14.289062 25.03125 14.167969 L 28.953125 10.242188 C 29.078125 10.121094 29.175781 9.980469 29.242188 9.820312 C 29.308594 9.65625 29.339844 9.488281 29.339844 9.316406 C 29.339844 9.140625 29.308594 8.972656 29.242188 8.8125 C 29.175781 8.652344 29.078125 8.511719 28.953125 8.386719 L 25.03125 4.464844 C 24.910156 4.34375 24.769531 4.246094 24.605469 4.179688 C 24.445312 4.113281 24.277344 4.082031 24.105469 4.082031 C 23.929688 4.082031 23.761719 4.113281 23.601562 4.179688 C 23.441406 4.25 23.300781 4.34375 23.175781 4.464844 C 23.054688 4.589844 22.960938 4.730469 22.890625 4.890625 C 22.824219 5.050781 22.792969 5.21875 22.792969 5.394531 C 22.792969 5.566406 22.824219 5.734375 22.890625 5.894531 C 22.957031 6.058594 23.054688 6.199219 23.175781 6.320312 L 24.875 8.007812 L 1.878906 8.007812 C 1.707031 8.007812 1.539062 8.042969 1.378906 8.109375 C 1.21875 8.175781 1.078125 8.269531 0.957031 8.390625 C 0.832031 8.515625 0.738281 8.65625 0.671875 8.816406 C 0.605469 8.976562 0.574219 9.140625 0.574219 9.316406 C 0.574219 9.488281 0.605469 9.65625 0.671875 9.816406 C 0.738281 9.976562 0.832031 10.117188 0.957031 10.238281 C 1.078125 10.363281 1.21875 10.457031 1.378906 10.523438 C 1.539062 10.589844 1.707031 10.625 1.878906 10.625 Z M 1.878906 10.625 "/></g></g></svg>