<svg width="25" height="20" viewBox="0 0 25 20" fill="none" xmlns="http://www.w3.org/2000/svg">
<g clip-path="url(#clip0_869_6082)">
<path d="M8.9 0.0390625C10.173 0.0390625 11.3939 0.544775 12.2941 1.44495C13.1943 2.34512 13.7 3.56602 13.7 4.83906C13.7 6.1121 13.1943 7.333 12.2941 8.23318C11.3939 9.13335 10.173 9.63906 8.9 9.63906C7.62696 9.63906 6.40606 9.13335 5.50589 8.23318C4.60571 7.333 4.1 6.1121 4.1 4.83906C4.1 3.56602 4.60571 2.34512 5.50589 1.44495C6.40606 0.544775 7.62696 0.0390625 8.9 0.0390625ZM7.18625 11.4391H10.6138C11.0563 11.4391 11.4913 11.4841 11.9075 11.5628C11.8288 12.2566 12.185 12.8978 12.725 13.2428C12.1025 13.6403 11.7238 14.4278 11.975 15.2416C12.125 15.7253 12.3275 16.1978 12.59 16.6516C12.8525 17.1053 13.16 17.5178 13.505 17.8891C14.0938 18.5228 14.99 18.5791 15.65 18.2153V18.2491C15.65 18.5941 15.7513 18.9428 15.9462 19.2353L1.61375 19.2391C0.99875 19.2391 0.5 18.7403 0.5 18.1253C0.5 14.4316 3.4925 11.4391 7.18625 11.4391ZM16.85 8.22156C16.85 7.95906 17.0188 7.72281 17.2738 7.66656C17.6675 7.57656 18.08 7.52781 18.5 7.52781C18.92 7.52781 19.3325 7.57656 19.7263 7.66656C19.9813 7.72281 20.15 7.95906 20.15 8.22156V9.36906C20.4463 9.49656 20.7275 9.65781 20.9862 9.84906L21.92 9.31281C22.1488 9.18156 22.4338 9.21156 22.6138 9.40281C22.8988 9.70656 23.15 10.0478 23.3675 10.4228C23.585 10.7978 23.7537 11.1878 23.8738 11.5853C23.9525 11.8366 23.8325 12.0991 23.6038 12.2303L22.6663 12.7703C22.6812 12.9203 22.6925 13.0741 22.6925 13.2316C22.6925 13.3891 22.685 13.5391 22.6663 13.6928L23.6038 14.2328C23.8325 14.3641 23.9487 14.6266 23.8738 14.8778C23.75 15.2753 23.5813 15.6653 23.3675 16.0403C23.1538 16.4153 22.8988 16.7566 22.6138 17.0603C22.4338 17.2516 22.145 17.2816 21.92 17.1503L20.9862 16.6141C20.7275 16.8053 20.45 16.9666 20.15 17.0941V18.2416C20.15 18.5041 19.9813 18.7403 19.7263 18.7966C19.3325 18.8866 18.92 18.9353 18.5 18.9353C18.08 18.9353 17.6675 18.8866 17.2738 18.7966C17.0188 18.7403 16.85 18.5041 16.85 18.2416V17.0978C16.55 16.9703 16.265 16.8091 16.0063 16.6141L15.08 17.1503C14.8512 17.2816 14.5662 17.2516 14.3863 17.0603C14.1012 16.7566 13.85 16.4153 13.6325 16.0403C13.415 15.6653 13.2463 15.2753 13.1263 14.8778C13.0475 14.6266 13.1675 14.3641 13.3963 14.2328L14.3263 13.6966C14.3113 13.5428 14.3 13.3891 14.3 13.2316C14.3 13.0741 14.3075 12.9203 14.3263 12.7666L13.3925 12.2266C13.1637 12.0953 13.0475 11.8328 13.1225 11.5816C13.2463 11.1841 13.4113 10.7941 13.6288 10.4191C13.8463 10.0441 14.0975 9.70281 14.3825 9.39906C14.5625 9.20781 14.8475 9.17781 15.0763 9.30906L16.0063 9.84531C16.265 9.65406 16.55 9.49281 16.85 9.36156V8.21781V8.22156ZM20.3037 13.2278C20.3149 12.9843 20.2765 12.741 20.191 12.5127C20.1054 12.2844 19.9745 12.0758 19.8061 11.8996C19.6377 11.7233 19.4353 11.583 19.2111 11.4871C18.9869 11.3913 18.7457 11.3418 18.5019 11.3418C18.2581 11.3418 18.0168 11.3913 17.7927 11.4871C17.5685 11.583 17.3661 11.7233 17.1977 11.8996C17.0293 12.0758 16.8983 12.2844 16.8128 12.5127C16.7273 12.741 16.6889 12.9843 16.7 13.2278C16.6889 13.4714 16.7273 13.7146 16.8128 13.9429C16.8983 14.1712 17.0293 14.3798 17.1977 14.5561C17.3661 14.7323 17.5685 14.8726 17.7927 14.9685C18.0168 15.0644 18.2581 15.1138 18.5019 15.1138C18.7457 15.1138 18.9869 15.0644 19.2111 14.9685C19.4353 14.8726 19.6377 14.7323 19.8061 14.5561C19.9745 14.3798 20.1054 14.1712 20.191 13.9429C20.2765 13.7146 20.3149 13.4714 20.3037 13.2278Z" fill="white"/>
</g>
<defs>
<clipPath id="clip0_869_6082">
<rect width="24" height="19.2" fill="white" transform="translate(0.5 0.0390625)"/>
</clipPath>
</defs>
</svg>
